<?xml version="1.0" encoding="utf-8"?>
<!-- Generator: Adobe Illustrator 23.0.1, SVG Export Plug-In . SVG Version: 6.00 Build 0)  -->
<svg version="1.1" id="Layer_1" xmlns="http://www.w3.org/2000/svg" xmlns:xlink="http://www.w3.org/1999/xlink" x="0px" y="0px"
	 viewBox="0 0 64 64" style="enable-background:new 0 0 64 64;" xml:space="preserve">
<style type="text/css">
	.st0{fill:#FFEFE4;}
	.st1{fill:#69EBFC;}
	.st2{fill:#EDD4C2;}
	.st3{fill:#CFB6A4;}
	.st4{fill:#D476E2;}
	.st5{fill:#5861C7;}
	.st6{fill:#FF8354;}
	.st7{fill:#6770E6;}
	.st8{fill:#3A43A9;}
	.st9{fill:#B665C2;}
	.st10{fill:#EA82FA;}
	.st11{fill:#5FD4E3;}
	.st12{fill:#69FFFF;}
	.st13{fill:#858EFF;}
	.st14{fill:#FFA171;}
	.st15{fill:#FFF7F2;}
	.st16{fill:#E0734A;}
	.st17{fill:#FFBF8F;}
	.st18{fill:#A1F1FC;}
	.st19{fill:#7DB6C5;}
	.st20{fill:#F0E0D5;}
	.st21{fill:#8F95E6;}
	.st22{fill:#FFAC8C;}
	.st23{fill:#BFFFFC;}
	.st24{fill:#FFFFFF;}
	.st25{fill:#FFDEC7;}
	.st26{fill:#FFA0FF;}
	.st27{fill:#C2552C;}
	.st28{fill:#FFCAAA;}
	.st29{fill:#4E57BD;}
	.st30{fill:#4952B8;}
	.st31{fill:#5D66DC;}
	.st32{fill:#7B84FA;}
	.st33{fill:#BFFFFF;}
</style>
<g>
	<path class="st2" d="M45,45H2v4.016C2,49.559,2.441,50,2.984,50H45V45z"/>
	<path class="st0" d="M41,45H2c-1.105,0-2-0.895-2-2V15c0-1.105,0.895-2,2-2h34c2.761,0,5,2.239,5,5V45z"/>
	<path class="st15" d="M36,13H2c-1.105,0-2,0.895-2,2v1c0-1.105,0.895-2,2-2h34c2.761,0,5,2.239,5,5v-1C41,15.239,38.761,13,36,13z"
		/>
	<path class="st6" d="M41,45h4.003c3.321,0,6.01,2.698,6,6.018L51,52h9c1.657,0,3-1.343,3-3V33.232l-3.412-12.994
		C59.241,18.919,58.049,18,56.686,18H41V45z"/>
	<path class="st14" d="M59.243,19.446C58.709,18.568,57.754,18,56.686,18H41v1h16.686C58.252,19,58.784,19.166,59.243,19.446z"/>
	<circle class="st7" cx="45" cy="51" r="6"/>
	<circle class="st5" cx="45" cy="51" r="3"/>
	<circle class="st7" cx="9" cy="51" r="6"/>
	<circle class="st5" cx="9" cy="51" r="3"/>
	<path class="st16" d="M63,45h-6c-0.552,0-1,0.448-1,1v3c0,0.552,0.448,1,1,1h6c0.552,0,1-0.448,1-1v-3C64,45.448,63.552,45,63,45z"
		/>
	<path class="st1" d="M45,23v8.7c0,0.79,0.465,1.507,1.188,1.828l7.231,3.214C53.802,36.912,54.217,37,54.637,37H63v-3.768
		L59.788,21H47C45.895,21,45,21.895,45,23z"/>
	<path class="st4" d="M62,44h1v-5h-1c-1.105,0-2,0.895-2,2v1C60,43.105,60.895,44,62,44z"/>
	<rect y="57" class="st4" width="64" height="7"/>
	<rect y="62" class="st9" width="64" height="2"/>
	<path class="st6" d="M23,15H1.5C0.672,15,0,14.328,0,13.5v0C0,12.672,0.672,12,1.5,12H23V15z"/>
	<path class="st6" d="M24,21H6.5C5.672,21,5,20.328,5,19.5v0C5,18.672,5.672,18,6.5,18H24V21z"/>
	<path class="st6" d="M23,27H1.5C0.672,27,0,26.328,0,25.5v0C0,24.672,0.672,24,1.5,24H23V27z"/>
	<path class="st6" d="M23,9H3.5C2.672,9,2,8.328,2,7.5v0C2,6.672,2.672,6,3.5,6H23V9z"/>
	<circle class="st6" cx="22.5" cy="13.5" r="13.5"/>
	<circle class="st0" cx="22.5" cy="13.5" r="10.385"/>
	<g>
		<path class="st6" d="M30,14h-7c-0.552,0-1-0.448-1-1V6c0-0.552,0.448-1,1-1s1,0.448,1,1v6h6c0.552,0,1,0.448,1,1S30.552,14,30,14z
			"/>
	</g>
	<path class="st6" d="M23,3H6.5C5.672,3,5,2.328,5,1.5v0C5,0.672,5.672,0,6.5,0H23V3z"/>
	<path class="st14" d="M6.5,1H23v0.025c7.053,0.259,12.713,5.918,12.975,12.969C35.981,13.829,36,13.667,36,13.5
		c0-7.287-5.778-13.21-13-13.475V0H6.5C5.672,0,5,0.672,5,1.5C5,1.676,5.036,1.843,5.092,2C5.298,1.419,5.848,1,6.5,1z"/>
	<path class="st6" d="M10.5,3C11.328,3,12,3.672,12,4.5S11.328,6,10.5,6H14V3H10.5z"/>
	<path class="st6" d="M7.5,9C8.328,9,9,9.672,9,10.5S8.328,12,7.5,12H11V9H7.5z"/>
	<path class="st6" d="M7.5,15C8.328,15,9,15.672,9,16.5S8.328,18,7.5,18H11v-3H7.5z"/>
	<path class="st6" d="M10.5,21c0.828,0,1.5,0.672,1.5,1.5S11.328,24,10.5,24H14v-3H10.5z"/>
</g>
</svg>
